<?xml version="1.0" encoding="utf-8" standalone="no"?>
<!DOCTYPE svg PUBLIC "-//W3C//DTD SVG 1.1//EN"
  "http://www.w3.org/Graphics/SVG/1.1/DTD/svg11.dtd">
<svg xmlns:xlink="http://www.w3.org/1999/xlink" width="550.421875pt" height="145.6325pt" viewBox="0 0 550.421875 145.6325" xmlns="http://www.w3.org/2000/svg" version="1.1">
 <metadata>
  <rdf:RDF xmlns:dc="http://purl.org/dc/elements/1.1/" xmlns:cc="http://creativecommons.org/ns#" xmlns:rdf="http://www.w3.org/1999/02/22-rdf-syntax-ns#">
   <cc:Work>
    <dc:type rdf:resource="http://purl.org/dc/dcmitype/StillImage"/>
    <dc:date>2025-11-07T12:21:35.977940</dc:date>
    <dc:format>image/svg+xml</dc:format>
    <dc:creator>
     <cc:Agent>
      <dc:title>Matplotlib v3.10.7, https://matplotlib.org/</dc:title>
     </cc:Agent>
    </dc:creator>
   </cc:Work>
  </rdf:RDF>
 </metadata>
 <defs>
  <style type="text/css">*{stroke-linejoin: round; stroke-linecap: butt}</style>
 </defs>
 <g id="figure_1">
  <g id="patch_1">
   <path d="M 0 145.6325 
L 550.421875 145.6325 
L 550.421875 0 
L 0 0 
z
" style="fill: #ffffff"/>
  </g>
  <g id="axes_1">
   <g id="patch_2">
    <path d="M 33.23125 114.3 
L 196.561458 114.3 
L 196.561458 7.2 
L 33.23125 7.2 
z
" style="fill: #ffffff"/>
   </g>
   <g id="matplotlib.axis_1">
    <g id="xtick_1">
     <g id="line2d_1">
      <defs>
       <path id="m1e75b340cc" d="M 0 0 
L 0 2 
" style="stroke: #262626; stroke-width: 0.5"/>
      </defs>
      <g>
       <use xlink:href="#m1e75b340cc" x="40.65535" y="114.3" style="fill: #262626; stroke: #262626; stroke-width: 0.5"/>
      </g>
     </g>
     <g id="text_1">
      <!-- 0.0 -->
      <g style="fill: #262626" transform="translate(35.09535 125.52625) scale(0.08 -0.08)">
       <defs>
        <path id="ArialMT-30" d="M 266 2259 
Q 266 3072 433 3567 
Q 600 4063 929 4331 
Q 1259 4600 1759 4600 
Q 2128 4600 2406 4451 
Q 2684 4303 2865 4023 
Q 3047 3744 3150 3342 
Q 3253 2941 3253 2259 
Q 3253 1453 3087 958 
Q 2922 463 2592 192 
Q 2263 -78 1759 -78 
Q 1097 -78 719 397 
Q 266 969 266 2259 
z
M 844 2259 
Q 844 1131 1108 757 
Q 1372 384 1759 384 
Q 2147 384 2411 759 
Q 2675 1134 2675 2259 
Q 2675 3391 2411 3762 
Q 2147 4134 1753 4134 
Q 1366 4134 1134 3806 
Q 844 3388 844 2259 
z
" transform="scale(0.015625)"/>
        <path id="ArialMT-2e" d="M 581 0 
L 581 641 
L 1222 641 
L 1222 0 
L 581 0 
z
" transform="scale(0.015625)"/>
       </defs>
       <use xlink:href="#ArialMT-30"/>
       <use xlink:href="#ArialMT-2e" transform="translate(55.615234 0)"/>
       <use xlink:href="#ArialMT-30" transform="translate(83.398438 0)"/>
      </g>
     </g>
    </g>
    <g id="xtick_2">
     <g id="line2d_2">
      <g>
       <use xlink:href="#m1e75b340cc" x="86.109026" y="114.3" style="fill: #262626; stroke: #262626; stroke-width: 0.5"/>
      </g>
     </g>
     <g id="text_2">
      <!-- 0.5 -->
      <g style="fill: #262626" transform="translate(80.549026 125.52625) scale(0.08 -0.08)">
       <defs>
        <path id="ArialMT-35" d="M 266 1200 
L 856 1250 
Q 922 819 1161 601 
Q 1400 384 1738 384 
Q 2144 384 2425 690 
Q 2706 997 2706 1503 
Q 2706 1984 2436 2262 
Q 2166 2541 1728 2541 
Q 1456 2541 1237 2417 
Q 1019 2294 894 2097 
L 366 2166 
L 809 4519 
L 3088 4519 
L 3088 3981 
L 1259 3981 
L 1013 2750 
Q 1425 3038 1878 3038 
Q 2478 3038 2890 2622 
Q 3303 2206 3303 1553 
Q 3303 931 2941 478 
Q 2500 -78 1738 -78 
Q 1113 -78 717 272 
Q 322 622 266 1200 
z
" transform="scale(0.015625)"/>
       </defs>
       <use xlink:href="#ArialMT-30"/>
       <use xlink:href="#ArialMT-2e" transform="translate(55.615234 0)"/>
       <use xlink:href="#ArialMT-35" transform="translate(83.398438 0)"/>
      </g>
     </g>
    </g>
    <g id="xtick_3">
     <g id="line2d_3">
      <g>
       <use xlink:href="#m1e75b340cc" x="131.562702" y="114.3" style="fill: #262626; stroke: #262626; stroke-width: 0.5"/>
      </g>
     </g>
     <g id="text_3">
      <!-- 1.0 -->
      <g style="fill: #262626" transform="translate(126.002702 125.52625) scale(0.08 -0.08)">
       <defs>
        <path id="ArialMT-31" d="M 2384 0 
L 1822 0 
L 1822 3584 
Q 1619 3391 1289 3197 
Q 959 3003 697 2906 
L 697 3450 
Q 1169 3672 1522 3987 
Q 1875 4303 2022 4600 
L 2384 4600 
L 2384 0 
z
" transform="scale(0.015625)"/>
       </defs>
       <use xlink:href="#ArialMT-31"/>
       <use xlink:href="#ArialMT-2e" transform="translate(55.615234 0)"/>
       <use xlink:href="#ArialMT-30" transform="translate(83.398438 0)"/>
      </g>
     </g>
    </g>
    <g id="xtick_4">
     <g id="line2d_4">
      <g>
       <use xlink:href="#m1e75b340cc" x="177.016378" y="114.3" style="fill: #262626; stroke: #262626; stroke-width: 0.5"/>
      </g>
     </g>
     <g id="text_4">
      <!-- 1.5 -->
      <g style="fill: #262626" transform="translate(171.456378 125.52625) scale(0.08 -0.08)">
       <use xlink:href="#ArialMT-31"/>
       <use xlink:href="#ArialMT-2e" transform="translate(55.615234 0)"/>
       <use xlink:href="#ArialMT-35" transform="translate(83.398438 0)"/>
      </g>
     </g>
    </g>
    <g id="text_5">
     <!-- Time [s] -->
     <g style="fill: #262626" transform="translate(100.824479 136.8425) scale(0.08 -0.08)">
      <defs>
       <path id="ArialMT-54" d="M 1659 0 
L 1659 4041 
L 150 4041 
L 150 4581 
L 3781 4581 
L 3781 4041 
L 2266 4041 
L 2266 0 
L 1659 0 
z
" transform="scale(0.015625)"/>
       <path id="ArialMT-69" d="M 425 3934 
L 425 4581 
L 988 4581 
L 988 3934 
L 425 3934 
z
M 425 0 
L 425 3319 
L 988 3319 
L 988 0 
L 425 0 
z
" transform="scale(0.015625)"/>
       <path id="ArialMT-6d" d="M 422 0 
L 422 3319 
L 925 3319 
L 925 2853 
Q 1081 3097 1340 3245 
Q 1600 3394 1931 3394 
Q 2300 3394 2536 3241 
Q 2772 3088 2869 2813 
Q 3263 3394 3894 3394 
Q 4388 3394 4653 3120 
Q 4919 2847 4919 2278 
L 4919 0 
L 4359 0 
L 4359 2091 
Q 4359 2428 4304 2576 
Q 4250 2725 4106 2815 
Q 3963 2906 3769 2906 
Q 3419 2906 3187 2673 
Q 2956 2441 2956 1928 
L 2956 0 
L 2394 0 
L 2394 2156 
Q 2394 2531 2256 2718 
Q 2119 2906 1806 2906 
Q 1569 2906 1367 2781 
Q 1166 2656 1075 2415 
Q 984 2175 984 1722 
L 984 0 
L 422 0 
z
" transform="scale(0.015625)"/>
       <path id="ArialMT-65" d="M 2694 1069 
L 3275 997 
Q 3138 488 2766 206 
Q 2394 -75 1816 -75 
Q 1088 -75 661 373 
Q 234 822 234 1631 
Q 234 2469 665 2931 
Q 1097 3394 1784 3394 
Q 2450 3394 2872 2941 
Q 3294 2488 3294 1666 
Q 3294 1616 3291 1516 
L 816 1516 
Q 847 969 1125 678 
Q 1403 388 1819 388 
Q 2128 388 2347 550 
Q 2566 713 2694 1069 
z
M 847 1978 
L 2700 1978 
Q 2663 2397 2488 2606 
Q 2219 2931 1791 2931 
Q 1403 2931 1139 2672 
Q 875 2413 847 1978 
z
" transform="scale(0.015625)"/>
       <path id="ArialMT-20" transform="scale(0.015625)"/>
       <path id="ArialMT-5b" d="M 434 -1272 
L 434 4581 
L 1675 4581 
L 1675 4116 
L 997 4116 
L 997 -806 
L 1675 -806 
L 1675 -1272 
L 434 -1272 
z
" transform="scale(0.015625)"/>
       <path id="ArialMT-73" d="M 197 991 
L 753 1078 
Q 800 744 1014 566 
Q 1228 388 1613 388 
Q 2000 388 2187 545 
Q 2375 703 2375 916 
Q 2375 1106 2209 1216 
Q 2094 1291 1634 1406 
Q 1016 1563 777 1677 
Q 538 1791 414 1992 
Q 291 2194 291 2438 
Q 291 2659 392 2848 
Q 494 3038 669 3163 
Q 800 3259 1026 3326 
Q 1253 3394 1513 3394 
Q 1903 3394 2198 3281 
Q 2494 3169 2634 2976 
Q 2775 2784 2828 2463 
L 2278 2388 
Q 2241 2644 2061 2787 
Q 1881 2931 1553 2931 
Q 1166 2931 1000 2803 
Q 834 2675 834 2503 
Q 834 2394 903 2306 
Q 972 2216 1119 2156 
Q 1203 2125 1616 2013 
Q 2213 1853 2448 1751 
Q 2684 1650 2818 1456 
Q 2953 1263 2953 975 
Q 2953 694 2789 445 
Q 2625 197 2315 61 
Q 2006 -75 1616 -75 
Q 969 -75 630 194 
Q 291 463 197 991 
z
" transform="scale(0.015625)"/>
       <path id="ArialMT-5d" d="M 1363 -1272 
L 122 -1272 
L 122 -806 
L 800 -806 
L 800 4116 
L 122 4116 
L 122 4581 
L 1363 4581 
L 1363 -1272 
z
" transform="scale(0.015625)"/>
      </defs>
      <use xlink:href="#ArialMT-54"/>
      <use xlink:href="#ArialMT-69" transform="translate(57.333984 0)"/>
      <use xlink:href="#ArialMT-6d" transform="translate(79.550781 0)"/>
      <use xlink:href="#ArialMT-65" transform="translate(162.851562 0)"/>
      <use xlink:href="#ArialMT-20" transform="translate(218.466797 0)"/>
      <use xlink:href="#ArialMT-5b" transform="translate(246.25 0)"/>
      <use xlink:href="#ArialMT-73" transform="translate(274.033203 0)"/>
      <use xlink:href="#ArialMT-5d" transform="translate(324.033203 0)"/>
     </g>
    </g>
   </g>
   <g id="matplotlib.axis_2">
    <g id="ytick_1">
     <g id="line2d_5">
      <defs>
       <path id="m778b51ec5e" d="M 0 0 
L -2 0 
" style="stroke: #262626; stroke-width: 0.5"/>
      </defs>
      <g>
       <use xlink:href="#m778b51ec5e" x="33.23125" y="100.007897" style="fill: #262626; stroke: #262626; stroke-width: 0.5"/>
      </g>
     </g>
     <g id="text_6">
      <!-- −1 -->
      <g style="fill: #262626" transform="translate(18.61 102.871022) scale(0.08 -0.08)">
       <defs>
        <path id="ArialMT-2212" d="M 3381 1997 
L 356 1997 
L 356 2522 
L 3381 2522 
L 3381 1997 
z
" transform="scale(0.015625)"/>
       </defs>
       <use xlink:href="#ArialMT-2212"/>
       <use xlink:href="#ArialMT-31" transform="translate(58.398438 0)"/>
      </g>
     </g>
    </g>
    <g id="ytick_2">
     <g id="line2d_6">
      <g>
       <use xlink:href="#m778b51ec5e" x="33.23125" y="78.015018" style="fill: #262626; stroke: #262626; stroke-width: 0.5"/>
      </g>
     </g>
     <g id="text_7">
      <!-- 0 -->
      <g style="fill: #262626" transform="translate(23.2825 80.878143) scale(0.08 -0.08)">
       <use xlink:href="#ArialMT-30"/>
      </g>
     </g>
    </g>
    <g id="ytick_3">
     <g id="line2d_7">
      <g>
       <use xlink:href="#m778b51ec5e" x="33.23125" y="56.022138" style="fill: #262626; stroke: #262626; stroke-width: 0.5"/>
      </g>
     </g>
     <g id="text_8">
      <!-- 1 -->
      <g style="fill: #262626" transform="translate(23.2825 58.885263) scale(0.08 -0.08)">
       <use xlink:href="#ArialMT-31"/>
      </g>
     </g>
    </g>
    <g id="ytick_4">
     <g id="line2d_8">
      <g>
       <use xlink:href="#m778b51ec5e" x="33.23125" y="34.029259" style="fill: #262626; stroke: #262626; stroke-width: 0.5"/>
      </g>
     </g>
     <g id="text_9">
      <!-- 2 -->
      <g style="fill: #262626" transform="translate(23.2825 36.892384) scale(0.08 -0.08)">
       <defs>
        <path id="ArialMT-32" d="M 3222 541 
L 3222 0 
L 194 0 
Q 188 203 259 391 
Q 375 700 629 1000 
Q 884 1300 1366 1694 
Q 2113 2306 2375 2664 
Q 2638 3022 2638 3341 
Q 2638 3675 2398 3904 
Q 2159 4134 1775 4134 
Q 1369 4134 1125 3890 
Q 881 3647 878 3216 
L 300 3275 
Q 359 3922 746 4261 
Q 1134 4600 1788 4600 
Q 2447 4600 2831 4234 
Q 3216 3869 3216 3328 
Q 3216 3053 3103 2787 
Q 2991 2522 2730 2228 
Q 2469 1934 1863 1422 
Q 1356 997 1212 845 
Q 1069 694 975 541 
L 3222 541 
z
" transform="scale(0.015625)"/>
       </defs>
       <use xlink:href="#ArialMT-32"/>
      </g>
     </g>
    </g>
    <g id="ytick_5">
     <g id="line2d_9">
      <g>
       <use xlink:href="#m778b51ec5e" x="33.23125" y="12.03638" style="fill: #262626; stroke: #262626; stroke-width: 0.5"/>
      </g>
     </g>
     <g id="text_10">
      <!-- 3 -->
      <g style="fill: #262626" transform="translate(23.2825 14.899505) scale(0.08 -0.08)">
       <defs>
        <path id="ArialMT-33" d="M 269 1209 
L 831 1284 
Q 928 806 1161 595 
Q 1394 384 1728 384 
Q 2125 384 2398 659 
Q 2672 934 2672 1341 
Q 2672 1728 2419 1979 
Q 2166 2231 1775 2231 
Q 1616 2231 1378 2169 
L 1441 2663 
Q 1497 2656 1531 2656 
Q 1891 2656 2178 2843 
Q 2466 3031 2466 3422 
Q 2466 3731 2256 3934 
Q 2047 4138 1716 4138 
Q 1388 4138 1169 3931 
Q 950 3725 888 3313 
L 325 3413 
Q 428 3978 793 4289 
Q 1159 4600 1703 4600 
Q 2078 4600 2393 4439 
Q 2709 4278 2876 4000 
Q 3044 3722 3044 3409 
Q 3044 3113 2884 2869 
Q 2725 2625 2413 2481 
Q 2819 2388 3044 2092 
Q 3269 1797 3269 1353 
Q 3269 753 2831 336 
Q 2394 -81 1725 -81 
Q 1122 -81 723 278 
Q 325 638 269 1209 
z
" transform="scale(0.015625)"/>
       </defs>
       <use xlink:href="#ArialMT-33"/>
      </g>
     </g>
    </g>
    <g id="text_11">
     <!-- Pixel intensity [sd] -->
     <g style="fill: #262626" transform="translate(12.92625 92.7625) rotate(-90) scale(0.08 -0.08)">
      <defs>
       <path id="ArialMT-50" d="M 494 0 
L 494 4581 
L 2222 4581 
Q 2678 4581 2919 4538 
Q 3256 4481 3484 4323 
Q 3713 4166 3852 3881 
Q 3991 3597 3991 3256 
Q 3991 2672 3619 2267 
Q 3247 1863 2275 1863 
L 1100 1863 
L 1100 0 
L 494 0 
z
M 1100 2403 
L 2284 2403 
Q 2872 2403 3119 2622 
Q 3366 2841 3366 3238 
Q 3366 3525 3220 3729 
Q 3075 3934 2838 4000 
Q 2684 4041 2272 4041 
L 1100 4041 
L 1100 2403 
z
" transform="scale(0.015625)"/>
       <path id="ArialMT-78" d="M 47 0 
L 1259 1725 
L 138 3319 
L 841 3319 
L 1350 2541 
Q 1494 2319 1581 2169 
Q 1719 2375 1834 2534 
L 2394 3319 
L 3066 3319 
L 1919 1756 
L 3153 0 
L 2463 0 
L 1781 1031 
L 1600 1309 
L 728 0 
L 47 0 
z
" transform="scale(0.015625)"/>
       <path id="ArialMT-6c" d="M 409 0 
L 409 4581 
L 972 4581 
L 972 0 
L 409 0 
z
" transform="scale(0.015625)"/>
       <path id="ArialMT-6e" d="M 422 0 
L 422 3319 
L 928 3319 
L 928 2847 
Q 1294 3394 1984 3394 
Q 2284 3394 2536 3286 
Q 2788 3178 2913 3003 
Q 3038 2828 3088 2588 
Q 3119 2431 3119 2041 
L 3119 0 
L 2556 0 
L 2556 2019 
Q 2556 2363 2490 2533 
Q 2425 2703 2258 2804 
Q 2091 2906 1866 2906 
Q 1506 2906 1245 2678 
Q 984 2450 984 1813 
L 984 0 
L 422 0 
z
" transform="scale(0.015625)"/>
       <path id="ArialMT-74" d="M 1650 503 
L 1731 6 
Q 1494 -44 1306 -44 
Q 1000 -44 831 53 
Q 663 150 594 308 
Q 525 466 525 972 
L 525 2881 
L 113 2881 
L 113 3319 
L 525 3319 
L 525 4141 
L 1084 4478 
L 1084 3319 
L 1650 3319 
L 1650 2881 
L 1084 2881 
L 1084 941 
Q 1084 700 1114 631 
Q 1144 563 1211 522 
Q 1278 481 1403 481 
Q 1497 481 1650 503 
z
" transform="scale(0.015625)"/>
       <path id="ArialMT-79" d="M 397 -1278 
L 334 -750 
Q 519 -800 656 -800 
Q 844 -800 956 -737 
Q 1069 -675 1141 -563 
Q 1194 -478 1313 -144 
Q 1328 -97 1363 -6 
L 103 3319 
L 709 3319 
L 1400 1397 
Q 1534 1031 1641 628 
Q 1738 1016 1872 1384 
L 2581 3319 
L 3144 3319 
L 1881 -56 
Q 1678 -603 1566 -809 
Q 1416 -1088 1222 -1217 
Q 1028 -1347 759 -1347 
Q 597 -1347 397 -1278 
z
" transform="scale(0.015625)"/>
       <path id="ArialMT-64" d="M 2575 0 
L 2575 419 
Q 2259 -75 1647 -75 
Q 1250 -75 917 144 
Q 584 363 401 755 
Q 219 1147 219 1656 
Q 219 2153 384 2558 
Q 550 2963 881 3178 
Q 1213 3394 1622 3394 
Q 1922 3394 2156 3267 
Q 2391 3141 2538 2938 
L 2538 4581 
L 3097 4581 
L 3097 0 
L 2575 0 
z
M 797 1656 
Q 797 1019 1065 703 
Q 1334 388 1700 388 
Q 2069 388 2326 689 
Q 2584 991 2584 1609 
Q 2584 2291 2321 2609 
Q 2059 2928 1675 2928 
Q 1300 2928 1048 2622 
Q 797 2316 797 1656 
z
" transform="scale(0.015625)"/>
      </defs>
      <use xlink:href="#ArialMT-50"/>
      <use xlink:href="#ArialMT-69" transform="translate(66.699219 0)"/>
      <use xlink:href="#ArialMT-78" transform="translate(88.916016 0)"/>
      <use xlink:href="#ArialMT-65" transform="translate(138.916016 0)"/>
      <use xlink:href="#ArialMT-6c" transform="translate(194.53125 0)"/>
      <use xlink:href="#ArialMT-20" transform="translate(216.748047 0)"/>
      <use xlink:href="#ArialMT-69" transform="translate(244.53125 0)"/>
      <use xlink:href="#ArialMT-6e" transform="translate(266.748047 0)"/>
      <use xlink:href="#ArialMT-74" transform="translate(322.363281 0)"/>
      <use xlink:href="#ArialMT-65" transform="translate(350.146484 0)"/>
      <use xlink:href="#ArialMT-6e" transform="translate(405.761719 0)"/>
      <use xlink:href="#ArialMT-73" transform="translate(461.376953 0)"/>
      <use xlink:href="#ArialMT-69" transform="translate(511.376953 0)"/>
      <use xlink:href="#ArialMT-74" transform="translate(533.59375 0)"/>
      <use xlink:href="#ArialMT-79" transform="translate(561.376953 0)"/>
      <use xlink:href="#ArialMT-20" transform="translate(611.376953 0)"/>
      <use xlink:href="#ArialMT-5b" transform="translate(639.160156 0)"/>
      <use xlink:href="#ArialMT-73" transform="translate(666.943359 0)"/>
      <use xlink:href="#ArialMT-64" transform="translate(716.943359 0)"/>
      <use xlink:href="#ArialMT-5d" transform="translate(772.558594 0)"/>
     </g>
    </g>
   </g>
   <g id="line2d_10">
    <path d="M 40.65535 78.001188 
L 43.685595 77.989035 
L 46.71584 77.979836 
L 49.746086 77.974339 
L 52.776331 77.972484 
L 55.806576 77.97325 
L 58.836821 77.974518 
L 61.867066 77.97288 
L 64.897311 77.963227 
L 67.927556 77.937882 
L 70.957801 77.885505 
L 73.988046 77.793995 
L 77.018291 77.658568 
L 80.048536 77.485928 
L 83.078781 77.283508 
L 86.109026 77.051233 
L 89.139271 76.785049 
L 92.169516 76.474585 
L 95.199761 76.100617 
L 98.230006 75.650534 
L 101.260251 75.140819 
L 104.290496 74.632117 
L 107.320742 74.201019 
L 110.350987 73.898765 
L 113.381232 73.727694 
L 116.411477 73.62361 
L 119.441722 73.492952 
L 122.471967 73.350407 
L 125.502212 73.27738 
L 128.532457 73.272356 
L 131.562702 73.269802 
L 134.592947 73.201137 
L 137.623192 72.955249 
L 140.653437 72.45207 
L 143.683682 71.805614 
L 146.713927 71.231191 
L 149.744172 70.808172 
L 152.774417 70.499004 
L 155.804662 70.306424 
L 158.834907 70.265485 
L 161.865152 70.352284 
L 164.895398 70.580011 
L 167.925643 70.994002 
L 170.955888 71.597086 
L 173.986133 72.305508 
L 177.016378 73.120844 
L 180.046623 74.070787 
L 183.076868 75.119642 
L 186.107113 76.172062 
L 189.137358 77.139616 
" clip-path="url(#pf76c50c357)" style="fill: none; stroke: #008000; stroke-linecap: round"/>
   </g>
   <g id="line2d_11">
    <path d="M 40.65535 78.041535 
L 43.685595 78.070643 
L 46.71584 78.106829 
L 49.746086 78.158441 
L 52.776331 78.240864 
L 55.806576 78.381261 
L 58.836821 78.626124 
L 61.867066 79.053615 
L 64.897311 79.794138 
L 67.927556 81.065069 
L 70.957801 83.222196 
L 73.988046 86.687394 
L 77.018291 91.161743 
L 80.048536 95.321263 
L 83.078781 98.156425 
L 86.109026 99.710174 
L 89.139271 100.635467 
L 92.169516 101.316376 
L 95.199761 101.865613 
L 98.230006 102.184699 
L 101.260251 102.208648 
L 104.290496 101.880003 
L 107.320742 100.857681 
L 110.350987 99.57294 
L 113.381232 99.207039 
L 116.411477 99.419489 
L 119.441722 98.93567 
L 122.471967 97.415396 
L 125.502212 95.236605 
L 128.532457 92.290807 
L 131.562702 88.703697 
L 134.592947 84.763848 
L 137.623192 80.626109 
L 140.653437 76.491673 
L 143.683682 72.021048 
L 146.713927 67.398957 
L 149.744172 63.384698 
L 152.774417 59.509139 
L 155.804662 54.448941 
L 158.834907 48.667092 
L 161.865152 44.326372 
L 164.895398 42.677177 
L 167.925643 43.312969 
L 170.955888 45.208666 
L 173.986133 46.368934 
L 177.016378 47.594345 
L 180.046623 49.934422 
L 183.076868 53.315525 
L 186.107113 58.63111 
L 189.137358 67.257517 
" clip-path="url(#pf76c50c357)" style="fill: none; stroke: #800080; stroke-linecap: round"/>
   </g>
   <g id="patch_3">
    <path d="M 33.23125 114.3 
L 33.23125 7.2 
" style="fill: none; stroke: #262626; stroke-width: 0.7; stroke-linejoin: miter; stroke-linecap: square"/>
   </g>
   <g id="patch_4">
    <path d="M 33.23125 114.3 
L 196.561458 114.3 
" style="fill: none; stroke: #262626; stroke-width: 0.7; stroke-linejoin: miter; stroke-linecap: square"/>
   </g>
  </g>
  <g id="axes_2">
   <g id="patch_5">
    <path d="M 206.561458 114.3 
L 369.891667 114.3 
L 369.891667 7.2 
L 206.561458 7.2 
z
" style="fill: #ffffff"/>
   </g>
   <g id="matplotlib.axis_3">
    <g id="xtick_5">
     <g id="line2d_12">
      <g>
       <use xlink:href="#m1e75b340cc" x="213.985559" y="114.3" style="fill: #262626; stroke: #262626; stroke-width: 0.5"/>
      </g>
     </g>
     <g id="text_12">
      <!-- 0.0 -->
      <g style="fill: #262626" transform="translate(208.425559 125.52625) scale(0.08 -0.08)">
       <use xlink:href="#ArialMT-30"/>
       <use xlink:href="#ArialMT-2e" transform="translate(55.615234 0)"/>
       <use xlink:href="#ArialMT-30" transform="translate(83.398438 0)"/>
      </g>
     </g>
    </g>
    <g id="xtick_6">
     <g id="line2d_13">
      <g>
       <use xlink:href="#m1e75b340cc" x="259.439235" y="114.3" style="fill: #262626; stroke: #262626; stroke-width: 0.5"/>
      </g>
     </g>
     <g id="text_13">
      <!-- 0.5 -->
      <g style="fill: #262626" transform="translate(253.879235 125.52625) scale(0.08 -0.08)">
       <use xlink:href="#ArialMT-30"/>
       <use xlink:href="#ArialMT-2e" transform="translate(55.615234 0)"/>
       <use xlink:href="#ArialMT-35" transform="translate(83.398438 0)"/>
      </g>
     </g>
    </g>
    <g id="xtick_7">
     <g id="line2d_14">
      <g>
       <use xlink:href="#m1e75b340cc" x="304.89291" y="114.3" style="fill: #262626; stroke: #262626; stroke-width: 0.5"/>
      </g>
     </g>
     <g id="text_14">
      <!-- 1.0 -->
      <g style="fill: #262626" transform="translate(299.33291 125.52625) scale(0.08 -0.08)">
       <use xlink:href="#ArialMT-31"/>
       <use xlink:href="#ArialMT-2e" transform="translate(55.615234 0)"/>
       <use xlink:href="#ArialMT-30" transform="translate(83.398438 0)"/>
      </g>
     </g>
    </g>
    <g id="xtick_8">
     <g id="line2d_15">
      <g>
       <use xlink:href="#m1e75b340cc" x="350.346586" y="114.3" style="fill: #262626; stroke: #262626; stroke-width: 0.5"/>
      </g>
     </g>
     <g id="text_15">
      <!-- 1.5 -->
      <g style="fill: #262626" transform="translate(344.786586 125.52625) scale(0.08 -0.08)">
       <use xlink:href="#ArialMT-31"/>
       <use xlink:href="#ArialMT-2e" transform="translate(55.615234 0)"/>
       <use xlink:href="#ArialMT-35" transform="translate(83.398438 0)"/>
      </g>
     </g>
    </g>
    <g id="text_16">
     <!-- Time [s] -->
     <g style="fill: #262626" transform="translate(274.154688 136.8425) scale(0.08 -0.08)">
      <use xlink:href="#ArialMT-54"/>
      <use xlink:href="#ArialMT-69" transform="translate(57.333984 0)"/>
      <use xlink:href="#ArialMT-6d" transform="translate(79.550781 0)"/>
      <use xlink:href="#ArialMT-65" transform="translate(162.851562 0)"/>
      <use xlink:href="#ArialMT-20" transform="translate(218.466797 0)"/>
      <use xlink:href="#ArialMT-5b" transform="translate(246.25 0)"/>
      <use xlink:href="#ArialMT-73" transform="translate(274.033203 0)"/>
      <use xlink:href="#ArialMT-5d" transform="translate(324.033203 0)"/>
     </g>
    </g>
   </g>
   <g id="matplotlib.axis_4">
    <g id="ytick_6">
     <g id="line2d_16">
      <g>
       <use xlink:href="#m778b51ec5e" x="206.561458" y="100.007897" style="fill: #262626; stroke: #262626; stroke-width: 0.5"/>
      </g>
     </g>
    </g>
    <g id="ytick_7">
     <g id="line2d_17">
      <g>
       <use xlink:href="#m778b51ec5e" x="206.561458" y="78.015018" style="fill: #262626; stroke: #262626; stroke-width: 0.5"/>
      </g>
     </g>
    </g>
    <g id="ytick_8">
     <g id="line2d_18">
      <g>
       <use xlink:href="#m778b51ec5e" x="206.561458" y="56.022138" style="fill: #262626; stroke: #262626; stroke-width: 0.5"/>
      </g>
     </g>
    </g>
    <g id="ytick_9">
     <g id="line2d_19">
      <g>
       <use xlink:href="#m778b51ec5e" x="206.561458" y="34.029259" style="fill: #262626; stroke: #262626; stroke-width: 0.5"/>
      </g>
     </g>
    </g>
    <g id="ytick_10">
     <g id="line2d_20">
      <g>
       <use xlink:href="#m778b51ec5e" x="206.561458" y="12.03638" style="fill: #262626; stroke: #262626; stroke-width: 0.5"/>
      </g>
     </g>
    </g>
   </g>
   <g id="line2d_21">
    <path d="M 213.985559 77.981813 
L 217.015804 77.953319 
L 220.046049 77.932824 
L 223.076294 77.921435 
L 226.106539 77.917622 
L 229.136784 77.917298 
L 232.167029 77.914235 
L 235.197274 77.900415 
L 238.227519 77.865892 
L 241.257764 77.79779 
L 244.288009 77.678546 
L 247.318254 77.487331 
L 250.348499 77.210554 
L 253.378744 76.853758 
L 256.408989 76.438744 
L 259.439235 75.992435 
L 262.46948 75.539937 
L 265.499725 75.096017 
L 268.52997 74.653387 
L 271.560215 74.181195 
L 274.59046 73.655567 
L 277.620705 73.111022 
L 280.65095 72.615055 
L 283.681195 72.210184 
L 286.71144 71.910728 
L 289.741685 71.707978 
L 292.77193 71.564109 
L 295.802175 71.485943 
L 298.83242 71.561 
L 301.862665 71.822615 
L 304.89291 72.150301 
L 307.923155 72.373706 
L 310.9534 72.381397 
L 313.983645 72.127287 
L 317.01389 71.648984 
L 320.044136 71.055213 
L 323.074381 70.401729 
L 326.104626 69.626179 
L 329.134871 68.707947 
L 332.165116 67.872639 
L 335.195361 67.469311 
L 338.225606 67.724365 
L 341.255851 68.607794 
L 344.286096 69.908354 
L 347.316341 71.343553 
L 350.346586 72.719611 
L 353.376831 73.976182 
L 356.407076 75.135088 
L 359.437321 76.203555 
L 362.467566 77.157674 
" clip-path="url(#p1df3b68997)" style="fill: none; stroke: #008000; stroke-linecap: round"/>
   </g>
   <g id="line2d_22">
    <path d="M 213.985559 78.083445 
L 217.015804 78.152188 
L 220.046049 78.225805 
L 223.076294 78.31658 
L 226.106539 78.448555 
L 229.136784 78.661808 
L 232.167029 79.017778 
L 235.197274 79.606883 
L 238.227519 80.560354 
L 241.257764 82.06924 
L 244.288009 84.408568 
L 247.318254 87.854858 
L 250.348499 92.084798 
L 253.378744 95.980773 
L 256.408989 98.633277 
L 259.439235 99.975049 
L 262.46948 100.71753 
L 265.499725 101.254594 
L 268.52997 101.657495 
L 271.560215 101.838139 
L 274.59046 101.743861 
L 277.620705 101.257777 
L 280.65095 100.118352 
L 283.681195 98.633725 
L 286.71144 97.89514 
L 289.741685 97.740646 
L 292.77193 97.145931 
L 295.802175 95.713636 
L 298.83242 93.167097 
L 301.862665 89.724199 
L 304.89291 86.127533 
L 307.923155 82.660577 
L 310.9534 79.015954 
L 313.983645 75.076649 
L 317.01389 70.688973 
L 320.044136 66.264378 
L 323.074381 62.815384 
L 326.104626 60.331062 
L 329.134871 57.160498 
L 332.165116 52.644476 
L 335.195361 47.956685 
L 338.225606 44.80737 
L 341.255851 44.060395 
L 344.286096 45.242956 
L 347.316341 46.968388 
L 350.346586 49.010584 
L 353.376831 51.776153 
L 356.407076 55.277306 
L 359.437321 60.373959 
L 362.467566 68.297627 
" clip-path="url(#p1df3b68997)" style="fill: none; stroke: #800080; stroke-linecap: round"/>
   </g>
   <g id="patch_6">
    <path d="M 206.561458 114.3 
L 206.561458 7.2 
" style="fill: none; stroke: #262626; stroke-width: 0.7; stroke-linejoin: miter; stroke-linecap: square"/>
   </g>
   <g id="patch_7">
    <path d="M 206.561458 114.3 
L 369.891667 114.3 
" style="fill: none; stroke: #262626; stroke-width: 0.7; stroke-linejoin: miter; stroke-linecap: square"/>
   </g>
  </g>
  <g id="axes_3">
   <g id="patch_8">
    <path d="M 379.891667 114.3 
L 543.221875 114.3 
L 543.221875 7.2 
L 379.891667 7.2 
z
" style="fill: #ffffff"/>
   </g>
   <g id="matplotlib.axis_5">
    <g id="xtick_9">
     <g id="line2d_23">
      <g>
       <use xlink:href="#m1e75b340cc" x="387.315767" y="114.3" style="fill: #262626; stroke: #262626; stroke-width: 0.5"/>
      </g>
     </g>
     <g id="text_17">
      <!-- 0.0 -->
      <g style="fill: #262626" transform="translate(381.755767 125.52625) scale(0.08 -0.08)">
       <use xlink:href="#ArialMT-30"/>
       <use xlink:href="#ArialMT-2e" transform="translate(55.615234 0)"/>
       <use xlink:href="#ArialMT-30" transform="translate(83.398438 0)"/>
      </g>
     </g>
    </g>
    <g id="xtick_10">
     <g id="line2d_24">
      <g>
       <use xlink:href="#m1e75b340cc" x="432.769443" y="114.3" style="fill: #262626; stroke: #262626; stroke-width: 0.5"/>
      </g>
     </g>
     <g id="text_18">
      <!-- 0.5 -->
      <g style="fill: #262626" transform="translate(427.209443 125.52625) scale(0.08 -0.08)">
       <use xlink:href="#ArialMT-30"/>
       <use xlink:href="#ArialMT-2e" transform="translate(55.615234 0)"/>
       <use xlink:href="#ArialMT-35" transform="translate(83.398438 0)"/>
      </g>
     </g>
    </g>
    <g id="xtick_11">
     <g id="line2d_25">
      <g>
       <use xlink:href="#m1e75b340cc" x="478.223119" y="114.3" style="fill: #262626; stroke: #262626; stroke-width: 0.5"/>
      </g>
     </g>
     <g id="text_19">
      <!-- 1.0 -->
      <g style="fill: #262626" transform="translate(472.663119 125.52625) scale(0.08 -0.08)">
       <use xlink:href="#ArialMT-31"/>
       <use xlink:href="#ArialMT-2e" transform="translate(55.615234 0)"/>
       <use xlink:href="#ArialMT-30" transform="translate(83.398438 0)"/>
      </g>
     </g>
    </g>
    <g id="xtick_12">
     <g id="line2d_26">
      <g>
       <use xlink:href="#m1e75b340cc" x="523.676794" y="114.3" style="fill: #262626; stroke: #262626; stroke-width: 0.5"/>
      </g>
     </g>
     <g id="text_20">
      <!-- 1.5 -->
      <g style="fill: #262626" transform="translate(518.116794 125.52625) scale(0.08 -0.08)">
       <use xlink:href="#ArialMT-31"/>
       <use xlink:href="#ArialMT-2e" transform="translate(55.615234 0)"/>
       <use xlink:href="#ArialMT-35" transform="translate(83.398438 0)"/>
      </g>
     </g>
    </g>
    <g id="text_21">
     <!-- Time [s] -->
     <g style="fill: #262626" transform="translate(447.484896 136.8425) scale(0.08 -0.08)">
      <use xlink:href="#ArialMT-54"/>
      <use xlink:href="#ArialMT-69" transform="translate(57.333984 0)"/>
      <use xlink:href="#ArialMT-6d" transform="translate(79.550781 0)"/>
      <use xlink:href="#ArialMT-65" transform="translate(162.851562 0)"/>
      <use xlink:href="#ArialMT-20" transform="translate(218.466797 0)"/>
      <use xlink:href="#ArialMT-5b" transform="translate(246.25 0)"/>
      <use xlink:href="#ArialMT-73" transform="translate(274.033203 0)"/>
      <use xlink:href="#ArialMT-5d" transform="translate(324.033203 0)"/>
     </g>
    </g>
   </g>
   <g id="matplotlib.axis_6">
    <g id="ytick_11">
     <g id="line2d_27">
      <g>
       <use xlink:href="#m778b51ec5e" x="379.891667" y="100.007897" style="fill: #262626; stroke: #262626; stroke-width: 0.5"/>
      </g>
     </g>
    </g>
    <g id="ytick_12">
     <g id="line2d_28">
      <g>
       <use xlink:href="#m778b51ec5e" x="379.891667" y="78.015018" style="fill: #262626; stroke: #262626; stroke-width: 0.5"/>
      </g>
     </g>
    </g>
    <g id="ytick_13">
     <g id="line2d_29">
      <g>
       <use xlink:href="#m778b51ec5e" x="379.891667" y="56.022138" style="fill: #262626; stroke: #262626; stroke-width: 0.5"/>
      </g>
     </g>
    </g>
    <g id="ytick_14">
     <g id="line2d_30">
      <g>
       <use xlink:href="#m778b51ec5e" x="379.891667" y="34.029259" style="fill: #262626; stroke: #262626; stroke-width: 0.5"/>
      </g>
     </g>
    </g>
    <g id="ytick_15">
     <g id="line2d_31">
      <g>
       <use xlink:href="#m778b51ec5e" x="379.891667" y="12.03638" style="fill: #262626; stroke: #262626; stroke-width: 0.5"/>
      </g>
     </g>
    </g>
   </g>
   <g id="line2d_32">
    <path d="M 387.315767 78.041678 
L 390.346012 78.074038 
L 393.376257 78.115999 
L 396.406502 78.168184 
L 399.436747 78.227441 
L 402.466992 78.287278 
L 405.497237 78.338976 
L 408.527482 78.372916 
L 411.557727 78.379552 
L 414.587973 78.349517 
L 417.618218 78.273184 
L 420.648463 78.143611 
L 423.678708 77.958109 
L 426.708953 77.710227 
L 429.739198 77.380463 
L 432.769443 76.940303 
L 435.799688 76.377682 
L 438.829933 75.7076 
L 441.860178 74.966359 
L 444.890423 74.216043 
L 447.920668 73.547984 
L 450.950913 73.065568 
L 453.981158 72.837842 
L 457.011403 72.859077 
L 460.041648 73.009072 
L 463.071893 73.063461 
L 466.102138 72.854882 
L 469.132383 72.315277 
L 472.162629 71.398753 
L 475.192874 70.138034 
L 478.223119 68.698684 
L 481.253364 67.250438 
L 484.283609 65.870724 
L 487.313854 64.694322 
L 490.344099 64.001015 
L 493.374344 64.017173 
L 496.404589 64.813011 
L 499.434834 66.28763 
L 502.465079 68.174239 
L 505.495324 70.095953 
L 508.525569 71.737077 
L 511.555814 72.949767 
L 514.586059 73.730983 
L 517.616304 74.209568 
L 520.646549 74.515342 
L 523.676794 74.81265 
L 526.707039 75.233201 
L 529.737285 75.804681 
L 532.76753 76.504591 
L 535.797775 77.259664 
" clip-path="url(#p5de486fe2e)" style="fill: none; stroke: #008000; stroke-linecap: round"/>
   </g>
   <g id="line2d_33">
    <path d="M 387.315767 77.908851 
L 390.346012 77.816767 
L 393.376257 77.750521 
L 396.406502 77.719461 
L 399.436747 77.730191 
L 402.466992 77.787929 
L 405.497237 77.89935 
L 408.527482 78.076668 
L 411.557727 78.343253 
L 414.587973 78.741073 
L 417.618218 79.333112 
L 420.648463 80.144557 
L 423.678708 81.063074 
L 426.708953 81.829 
L 429.739198 82.282557 
L 432.769443 82.583097 
L 435.799688 82.940057 
L 438.829933 83.438242 
L 441.860178 83.938454 
L 444.890423 83.990288 
L 447.920668 82.978038 
L 450.950913 80.411468 
L 453.981158 76.638796 
L 457.011403 72.597128 
L 460.041648 69.114877 
L 463.071893 67.021939 
L 466.102138 67.508703 
L 469.132383 71.616888 
L 472.162629 79.209279 
L 475.192874 88.596551 
L 478.223119 96.840352 
L 481.253364 100.117282 
L 484.283609 95.096975 
L 487.313854 80.298658 
L 490.344099 57.783561 
L 493.374344 33.952169 
L 496.404589 16.645143 
L 499.434834 12.068182 
L 502.465079 20.815816 
L 505.495324 39.151763 
L 508.525569 62.925303 
L 511.555814 87.126589 
L 514.586059 103.53435 
L 517.616304 109.431818 
L 520.646549 106.852842 
L 523.676794 97.749654 
L 526.707039 85.283386 
L 529.737285 75.416814 
L 532.76753 71.542974 
L 535.797775 73.356849 
" clip-path="url(#p5de486fe2e)" style="fill: none; stroke: #800080; stroke-linecap: round"/>
   </g>
   <g id="patch_9">
    <path d="M 379.891667 114.3 
L 379.891667 7.2 
" style="fill: none; stroke: #262626; stroke-width: 0.7; stroke-linejoin: miter; stroke-linecap: square"/>
   </g>
   <g id="patch_10">
    <path d="M 379.891667 114.3 
L 543.221875 114.3 
" style="fill: none; stroke: #262626; stroke-width: 0.7; stroke-linejoin: miter; stroke-linecap: square"/>
   </g>
  </g>
  <g id="legend_1"/>
 </g>
 <defs>
  <clipPath id="pf76c50c357">
   <rect x="33.23125" y="7.2" width="163.330208" height="107.1"/>
  </clipPath>
  <clipPath id="p1df3b68997">
   <rect x="206.561458" y="7.2" width="163.330208" height="107.1"/>
  </clipPath>
  <clipPath id="p5de486fe2e">
   <rect x="379.891667" y="7.2" width="163.330208" height="107.1"/>
  </clipPath>
 </defs>
</svg>
